G04*
G04 #@! TF.GenerationSoftware,Altium Limited,Altium Designer,23.4.1 (23)*
G04*
G04 Layer_Physical_Order=1*
G04 Layer_Color=255*
%FSLAX44Y44*%
%MOMM*%
G71*
G04*
G04 #@! TF.SameCoordinates,7EF6362F-2363-4B38-88DE-BB285B2C36F4*
G04*
G04*
G04 #@! TF.FilePolarity,Positive*
G04*
G01*
G75*
%ADD14C,0.2540*%
G04:AMPARAMS|DCode=17|XSize=0.5mm|YSize=0.6mm|CornerRadius=0mm|HoleSize=0mm|Usage=FLASHONLY|Rotation=45.000|XOffset=0mm|YOffset=0mm|HoleType=Round|Shape=Rectangle|*
%AMROTATEDRECTD17*
4,1,4,0.0354,-0.3889,-0.3889,0.0354,-0.0354,0.3889,0.3889,-0.0354,0.0354,-0.3889,0.0*
%
%ADD17ROTATEDRECTD17*%

G04:AMPARAMS|DCode=18|XSize=0.45mm|YSize=2.4mm|CornerRadius=0mm|HoleSize=0mm|Usage=FLASHONLY|Rotation=135.000|XOffset=0mm|YOffset=0mm|HoleType=Round|Shape=Round|*
%AMOVALD18*
21,1,1.9500,0.4500,0.0000,0.0000,225.0*
1,1,0.4500,0.6894,0.6894*
1,1,0.4500,-0.6894,-0.6894*
%
%ADD18OVALD18*%

G04:AMPARAMS|DCode=19|XSize=1.5mm|YSize=1.3mm|CornerRadius=0mm|HoleSize=0mm|Usage=FLASHONLY|Rotation=135.000|XOffset=0mm|YOffset=0mm|HoleType=Round|Shape=Rectangle|*
%AMROTATEDRECTD19*
4,1,4,0.9900,-0.0707,0.0707,-0.9900,-0.9900,0.0707,-0.0707,0.9900,0.9900,-0.0707,0.0*
%
%ADD19ROTATEDRECTD19*%

G04:AMPARAMS|DCode=20|XSize=0.4mm|YSize=1.35mm|CornerRadius=0mm|HoleSize=0mm|Usage=FLASHONLY|Rotation=321.000|XOffset=0mm|YOffset=0mm|HoleType=Round|Shape=Rectangle|*
%AMROTATEDRECTD20*
4,1,4,-0.5802,-0.3987,0.2694,0.6504,0.5802,0.3987,-0.2694,-0.6504,-0.5802,-0.3987,0.0*
%
%ADD20ROTATEDRECTD20*%

G04:AMPARAMS|DCode=21|XSize=1.8mm|YSize=1.9mm|CornerRadius=0mm|HoleSize=0mm|Usage=FLASHONLY|Rotation=321.000|XOffset=0mm|YOffset=0mm|HoleType=Round|Shape=Rectangle|*
%AMROTATEDRECTD21*
4,1,4,-1.2973,-0.1719,-0.1016,1.3047,1.2973,0.1719,0.1016,-1.3047,-1.2973,-0.1719,0.0*
%
%ADD21ROTATEDRECTD21*%

G04:AMPARAMS|DCode=22|XSize=1.5mm|YSize=1.9mm|CornerRadius=0mm|HoleSize=0mm|Usage=FLASHONLY|Rotation=321.000|XOffset=0mm|YOffset=0mm|HoleType=Round|Shape=Rectangle|*
%AMROTATEDRECTD22*
4,1,4,-1.1807,-0.2663,0.0150,1.2103,1.1807,0.2663,-0.0150,-1.2103,-1.1807,-0.2663,0.0*
%
%ADD22ROTATEDRECTD22*%

G04:AMPARAMS|DCode=23|XSize=1mm|YSize=1.85mm|CornerRadius=0mm|HoleSize=0mm|Usage=FLASHONLY|Rotation=135.000|XOffset=0mm|YOffset=0mm|HoleType=Round|Shape=Rectangle|*
%AMROTATEDRECTD23*
4,1,4,1.0076,0.3005,-0.3005,-1.0076,-1.0076,-0.3005,0.3005,1.0076,1.0076,0.3005,0.0*
%
%ADD23ROTATEDRECTD23*%

G04:AMPARAMS|DCode=24|XSize=3.2mm|YSize=1.85mm|CornerRadius=0mm|HoleSize=0mm|Usage=FLASHONLY|Rotation=135.000|XOffset=0mm|YOffset=0mm|HoleType=Round|Shape=Rectangle|*
%AMROTATEDRECTD24*
4,1,4,1.7854,-0.4773,0.4773,-1.7854,-1.7854,0.4773,-0.4773,1.7854,1.7854,-0.4773,0.0*
%
%ADD24ROTATEDRECTD24*%

G04:AMPARAMS|DCode=25|XSize=1.5mm|YSize=1.95mm|CornerRadius=0mm|HoleSize=0mm|Usage=FLASHONLY|Rotation=135.000|XOffset=0mm|YOffset=0mm|HoleType=Round|Shape=Rectangle|*
%AMROTATEDRECTD25*
4,1,4,1.2198,0.1591,-0.1591,-1.2198,-1.2198,-0.1591,0.1591,1.2198,1.2198,0.1591,0.0*
%
%ADD25ROTATEDRECTD25*%

G04:AMPARAMS|DCode=26|XSize=1.5mm|YSize=1.3mm|CornerRadius=0mm|HoleSize=0mm|Usage=FLASHONLY|Rotation=45.000|XOffset=0mm|YOffset=0mm|HoleType=Round|Shape=Rectangle|*
%AMROTATEDRECTD26*
4,1,4,-0.0707,-0.9900,-0.9900,-0.0707,0.0707,0.9900,0.9900,0.0707,-0.0707,-0.9900,0.0*
%
%ADD26ROTATEDRECTD26*%

G04:AMPARAMS|DCode=27|XSize=1.5mm|YSize=1.95mm|CornerRadius=0mm|HoleSize=0mm|Usage=FLASHONLY|Rotation=45.000|XOffset=0mm|YOffset=0mm|HoleType=Round|Shape=Rectangle|*
%AMROTATEDRECTD27*
4,1,4,0.1591,-1.2198,-1.2198,0.1591,-0.1591,1.2198,1.2198,-0.1591,0.1591,-1.2198,0.0*
%
%ADD27ROTATEDRECTD27*%

G04:AMPARAMS|DCode=28|XSize=0.6mm|YSize=1.95mm|CornerRadius=0mm|HoleSize=0mm|Usage=FLASHONLY|Rotation=45.000|XOffset=0mm|YOffset=0mm|HoleType=Round|Shape=Round|*
%AMOVALD28*
21,1,1.3500,0.6000,0.0000,0.0000,135.0*
1,1,0.6000,0.4773,-0.4773*
1,1,0.6000,-0.4773,0.4773*
%
%ADD28OVALD28*%

G04:AMPARAMS|DCode=29|XSize=0.6mm|YSize=1.95mm|CornerRadius=0mm|HoleSize=0mm|Usage=FLASHONLY|Rotation=135.000|XOffset=0mm|YOffset=0mm|HoleType=Round|Shape=Round|*
%AMOVALD29*
21,1,1.3500,0.6000,0.0000,0.0000,225.0*
1,1,0.6000,0.4773,0.4773*
1,1,0.6000,-0.4773,-0.4773*
%
%ADD29OVALD29*%

G04:AMPARAMS|DCode=30|XSize=1.4mm|YSize=1.5mm|CornerRadius=0mm|HoleSize=0mm|Usage=FLASHONLY|Rotation=135.000|XOffset=0mm|YOffset=0mm|HoleType=Round|Shape=Rectangle|*
%AMROTATEDRECTD30*
4,1,4,1.0253,0.0354,-0.0354,-1.0253,-1.0253,-0.0354,0.0354,1.0253,1.0253,0.0354,0.0*
%
%ADD30ROTATEDRECTD30*%

G04:AMPARAMS|DCode=31|XSize=1.25mm|YSize=1.1mm|CornerRadius=0mm|HoleSize=0mm|Usage=FLASHONLY|Rotation=135.000|XOffset=0mm|YOffset=0mm|HoleType=Round|Shape=Rectangle|*
%AMROTATEDRECTD31*
4,1,4,0.8309,-0.0530,0.0530,-0.8309,-0.8309,0.0530,-0.0530,0.8309,0.8309,-0.0530,0.0*
%
%ADD31ROTATEDRECTD31*%

G04:AMPARAMS|DCode=32|XSize=1.6mm|YSize=1.4mm|CornerRadius=0mm|HoleSize=0mm|Usage=FLASHONLY|Rotation=315.000|XOffset=0mm|YOffset=0mm|HoleType=Round|Shape=Rectangle|*
%AMROTATEDRECTD32*
4,1,4,-1.0607,0.0707,-0.0707,1.0607,1.0607,-0.0707,0.0707,-1.0607,-1.0607,0.0707,0.0*
%
%ADD32ROTATEDRECTD32*%

G04:AMPARAMS|DCode=33|XSize=1.25mm|YSize=1.1mm|CornerRadius=0mm|HoleSize=0mm|Usage=FLASHONLY|Rotation=45.000|XOffset=0mm|YOffset=0mm|HoleType=Round|Shape=Rectangle|*
%AMROTATEDRECTD33*
4,1,4,-0.0530,-0.8309,-0.8309,-0.0530,0.0530,0.8309,0.8309,0.0530,-0.0530,-0.8309,0.0*
%
%ADD33ROTATEDRECTD33*%

%ADD55C,2.0000*%
%ADD56C,1.4500*%
G04:AMPARAMS|DCode=57|XSize=0.6mm|YSize=1.3mm|CornerRadius=0.15mm|HoleSize=0mm|Usage=FLASHONLY|Rotation=321.000|XOffset=0mm|YOffset=0mm|HoleType=Round|Shape=RoundedRectangle|*
%AMROUNDEDRECTD57*
21,1,0.6000,1.0000,0,0,321.0*
21,1,0.3000,1.3000,0,0,321.0*
1,1,0.3000,-0.1981,-0.4830*
1,1,0.3000,-0.4312,-0.2942*
1,1,0.3000,0.1981,0.4830*
1,1,0.3000,0.4312,0.2942*
%
%ADD57ROUNDEDRECTD57*%
%ADD58C,1.2700*%
D14*
X-94906Y180690D02*
X-60610D01*
X1874Y159354D02*
Y167347D01*
X476627Y57246D02*
Y89277D01*
Y118179D01*
X356458Y-6000D02*
Y17114D01*
Y-26320D02*
Y-6000D01*
Y17114D02*
Y17368D01*
X-25050Y166212D02*
Y168244D01*
X-34702Y158592D02*
X-32670D01*
X-67251D02*
X-60915D01*
X100426Y-36480D02*
X113313D01*
X478638Y174842D02*
X503270Y150210D01*
X476346Y177134D02*
X478638Y174842D01*
Y177134D01*
Y160589D02*
Y174842D01*
X366283Y-52909D02*
X368985D01*
X-41560Y158592D02*
X-37242D01*
X65189Y42514D02*
Y54960D01*
Y41419D02*
Y42514D01*
X44422D02*
X65189D01*
X-55937Y158592D02*
X-41560D01*
X-76883D02*
X-55937D01*
X68333Y25750D02*
X77820D01*
X87256Y235673D02*
X92456D01*
X-183Y313532D02*
X11272D01*
X-64153Y249562D02*
X-183Y313532D01*
X-64153Y227451D02*
Y249562D01*
X-39882Y191866D02*
X-34702D01*
X-69810Y221794D02*
X-39882Y191866D01*
X-49180Y127749D02*
X-43647D01*
X-53244Y123685D02*
X-49180Y127749D01*
X-53244Y117952D02*
Y123685D01*
X-48926Y144342D02*
Y148432D01*
Y144342D02*
X-37990Y133406D01*
X475020Y130636D02*
X476627Y118179D01*
X475020Y130636D02*
X483447Y139064D01*
X484068D01*
X-81124Y144719D02*
X-67251Y158592D01*
X-32670D02*
X-25050Y166212D01*
Y168244D02*
Y175864D01*
X-34702Y158592D02*
X-25050Y168244D01*
X-60915Y158592D02*
X-34702D01*
X-79996Y161894D02*
X-60915Y158592D01*
X-86120Y162351D02*
X-79996Y161894D01*
X-92437Y156033D02*
X-86120Y162351D01*
X113313Y-36480D02*
Y-25913D01*
X12963Y54837D02*
Y78168D01*
X20924Y86129D01*
Y120238D01*
X103728Y203042D01*
Y241904D01*
X89758Y255874D02*
X103728Y241904D01*
X42849Y284450D02*
X65120D01*
X76423Y273146D01*
Y262351D02*
Y273146D01*
X26586Y300713D02*
X52420D01*
X170795Y6395D02*
X190799D01*
X259684Y75280D01*
X291744D01*
X311048Y55976D01*
X321166D01*
X324815Y59625D01*
X171855Y62556D02*
X186477D01*
X206716Y42316D01*
X562910Y118410D02*
Y153559D01*
X561690Y117190D02*
X562910Y118410D01*
X276702Y75280D02*
X291434D01*
X320898Y45816D01*
X331058D01*
Y47584D01*
X334918Y51444D01*
X-21748Y174086D02*
Y178404D01*
X-37242Y158592D02*
X-21748Y174086D01*
X-75466Y139063D02*
X-55937Y158592D01*
X-4049Y167347D02*
X1874D01*
Y159354D02*
X3906Y157322D01*
Y157068D02*
Y157322D01*
Y157068D02*
X9240Y151734D01*
X28855D01*
X44640Y167519D01*
X-9706Y161690D02*
X-8024D01*
X1985Y151682D01*
X19400D01*
X22956Y155238D01*
Y167803D01*
X12796Y177963D02*
X22956Y167803D01*
X12796Y177963D02*
Y191866D01*
X24370Y203440D01*
X44640D01*
X-21477Y162148D02*
X-15362Y156033D01*
X-38766Y162148D02*
X-21477D01*
X-42322Y158592D02*
X-38766Y162148D01*
X-63150Y158592D02*
X-42322D01*
X-65182Y156560D02*
X-63150Y158592D01*
X-68230Y180690D02*
X-64674Y177134D01*
X-79152Y180690D02*
X-68230D01*
X-83724Y176118D02*
X-79152Y180690D01*
X-94980Y176118D02*
X-83724D01*
X-103751Y167347D02*
X-94980Y176118D01*
X-60610Y180690D02*
Y185770D01*
X-102069Y187853D02*
X-94906Y180690D01*
X-103751Y187853D02*
X-102069D01*
X-75466Y216137D02*
X-63404Y204075D01*
X-43647Y228133D02*
X-24288Y247492D01*
X-43647Y227451D02*
Y228133D01*
X396163Y248000D02*
X404282Y239882D01*
X390240Y248000D02*
X396163D01*
X155036Y12796D02*
X390240Y248000D01*
X125064Y12796D02*
X155036D01*
X116428Y4160D02*
X125064Y12796D01*
X116428Y380D02*
Y4160D01*
X105760Y-10287D02*
X116428Y380D01*
X93187Y-10287D02*
X105760D01*
X-86780Y150377D02*
X-85098D01*
X-76883Y158592D01*
X-41560D02*
X-21748Y178404D01*
X-26676Y144719D02*
X-24994D01*
X-16246Y135972D01*
X-7792D01*
X-2444Y141320D01*
X512668Y162291D02*
Y165914D01*
X526141Y179387D01*
Y190329D01*
X558314Y158155D02*
X568040D01*
X570785Y160900D01*
Y165795D01*
X576011Y171021D01*
Y175585D01*
X573120Y178475D02*
X576011Y175585D01*
X570930Y178475D02*
X573120D01*
X424412Y41237D02*
X429492Y36157D01*
Y25309D02*
Y36157D01*
X401408Y-46102D02*
Y-36291D01*
Y-46102D02*
X413608Y-58302D01*
Y-62561D02*
Y-58302D01*
X-61880Y100772D02*
Y109996D01*
X-64153Y112268D02*
X-61880Y109996D01*
X-64153Y112268D02*
Y127749D01*
X-700Y90800D02*
Y136729D01*
X-2444Y138473D02*
X-700Y136729D01*
X443390Y162044D02*
X461087D01*
X381256Y7757D02*
Y8111D01*
X374238Y15129D02*
X381256Y8111D01*
X137113Y-8613D02*
Y3827D01*
X126953D02*
X137113D01*
X503270Y150210D02*
X517240D01*
X523336Y156306D01*
Y159326D01*
X539929Y175919D01*
Y176540D01*
X345021Y42027D02*
Y43262D01*
X343250Y40256D02*
X345021Y42027D01*
X343250Y30576D02*
Y40256D01*
Y30576D02*
X356458Y17368D01*
X341980Y-20478D02*
X356458Y-6000D01*
X318866Y-20478D02*
X341980D01*
X270860Y27528D02*
X318866Y-20478D01*
X533750Y152598D02*
X548500Y167348D01*
X549122D01*
X-32333Y137381D02*
Y139063D01*
Y137381D02*
X-26066Y131114D01*
Y122778D02*
Y131114D01*
X-38004Y110840D02*
X-26066Y122778D01*
X-52152Y173502D02*
X-47402Y168752D01*
X-52812Y173502D02*
X-52152D01*
X-59340Y166974D02*
X-52812Y173502D01*
X-70852Y166974D02*
X-59340D01*
X-74408Y170530D02*
X-70852Y166974D01*
X-90936Y170530D02*
X-74408D01*
X-98094Y163372D02*
X-90936Y170530D01*
X-98094Y161690D02*
Y163372D01*
X114396Y-51974D02*
X125687Y-40683D01*
Y-38287D01*
X-86780Y204824D02*
X-85098D01*
X-75850Y195575D01*
Y190850D02*
Y195575D01*
X77215Y245714D02*
X87256Y235673D01*
X92456Y227955D02*
Y235673D01*
X12673Y228213D02*
X24513D01*
X4160Y219700D02*
X12673Y228213D01*
X-17456Y219700D02*
X4160D01*
X-26676Y210481D02*
X-17456Y219700D01*
X476627Y89277D02*
X479902Y92552D01*
X581248Y146400D02*
Y185770D01*
X575914Y191104D02*
X581248Y185770D01*
X545922Y191104D02*
X575914D01*
X535954Y181136D02*
X545922Y191104D01*
X535333Y181136D02*
X535954D01*
X544672Y135224D02*
Y153084D01*
X553718Y162130D01*
Y162752D01*
X327248Y85186D02*
X365602Y46832D01*
Y784D02*
Y46832D01*
Y784D02*
X369943Y-3557D01*
X492177Y70612D02*
X492184Y57457D01*
X487104Y75684D02*
X492177Y70612D01*
X487014Y75788D02*
X487104Y75684D01*
X416402Y-22092D02*
X424395D01*
X427787Y-8687D01*
X476346Y177134D02*
X478638D01*
X470901Y152852D02*
X478638Y160589D01*
X470280Y152852D02*
X470901D01*
X384387Y-17012D02*
X396844D01*
X401924Y-11932D01*
Y-6852D01*
X446882Y53326D02*
X446929Y53373D01*
Y71600D01*
X368985Y-52909D02*
X384792D01*
X368904Y-52990D02*
X368985Y-52909D01*
X31084Y106268D02*
X32408Y104944D01*
Y74282D02*
Y104944D01*
X-37990Y221794D02*
X-27532Y232252D01*
X-19208D01*
X-10064Y241396D01*
X33692Y17368D02*
Y38491D01*
Y17368D02*
X35412Y15648D01*
X57019D01*
X32100Y54837D02*
X44422Y42514D01*
X12963Y54837D02*
X32100D01*
X-13074Y78425D02*
X6036D01*
X13050Y85440D01*
Y127858D01*
X25242Y140050D01*
X-11792Y108808D02*
Y124810D01*
X81376Y29306D02*
Y48356D01*
X77820Y25750D02*
X81376Y29306D01*
X68333Y25750D02*
Y26962D01*
X62600Y221400D02*
Y242920D01*
X59113Y246407D02*
X62600Y242920D01*
X59113Y246407D02*
Y268186D01*
X476627Y41901D02*
Y57246D01*
X462485Y71388D02*
X476627Y57246D01*
X462485Y71388D02*
Y87156D01*
X85231Y-25913D02*
X113313D01*
X80813Y-21494D02*
X85231Y-25913D01*
X80813Y-21494D02*
Y2087D01*
X12796Y162656D02*
Y169695D01*
X6192Y176299D02*
X12796Y169695D01*
X6192Y176299D02*
Y181960D01*
X299Y187853D02*
X6192Y181960D01*
X-4049Y187853D02*
X299D01*
X129482Y-20987D02*
X149487D01*
X124557Y-25913D02*
X129482Y-20987D01*
X113313Y-25913D02*
X124557D01*
X80813Y2087D02*
Y6192D01*
X92813Y18192D01*
Y22787D01*
X105188Y10413D02*
Y39440D01*
X84587Y60040D02*
X105188Y39440D01*
X70269Y60040D02*
X84587D01*
X65189Y54960D02*
X70269Y60040D01*
X372013Y-29387D02*
X393777D01*
X415413Y-7751D01*
Y3687D01*
X356458Y-26320D02*
X372013Y-29387D01*
X342488Y31084D02*
X356458Y17114D01*
X342032Y39571D02*
X342488Y31084D01*
X342032Y39571D02*
X345021Y43262D01*
X415413Y3687D02*
X428086D01*
X433091Y8692D01*
X446108D01*
Y12172D01*
X475838Y41901D01*
X476627D01*
X50308Y55108D02*
Y55722D01*
X32408Y73622D02*
X50308Y55722D01*
X32408Y73622D02*
Y74282D01*
X46787Y221400D02*
X62600D01*
X39974Y228213D02*
X46787Y221400D01*
X24513Y228213D02*
X39974D01*
X24513D02*
Y231998D01*
X7823Y248688D02*
X24513Y231998D01*
X7823Y248688D02*
Y252477D01*
X149487Y-5199D02*
X153258Y-1428D01*
X149487Y-20987D02*
Y-5199D01*
X-28408Y79179D02*
Y92192D01*
Y79179D02*
X-4066Y54837D01*
X12963D01*
X42849Y265392D02*
Y284450D01*
X36887Y259430D02*
X42849Y265392D01*
X36887Y240588D02*
Y259430D01*
X21774Y300713D02*
X26586D01*
X-7016Y271923D02*
X21774Y300713D01*
X-11623Y271923D02*
X-7016D01*
X516241Y106890D02*
X533938D01*
X512668Y68233D02*
Y85689D01*
X507049Y91308D02*
X512668Y85689D01*
X507049Y91308D02*
Y116083D01*
X502453Y120678D02*
Y138375D01*
X488664Y116770D02*
Y134467D01*
X87751Y329351D02*
Y354825D01*
X325929Y-9563D02*
Y24263D01*
X310200Y15122D02*
Y37000D01*
X156052Y303651D02*
Y308255D01*
X144541Y292140D02*
X156052Y303651D01*
X144541Y280041D02*
Y292140D01*
X503160Y213310D02*
Y231006D01*
X521544Y194925D02*
Y212621D01*
D17*
X395714Y4613D02*
D03*
X390057Y-1043D02*
D03*
X384400Y-6701D02*
D03*
X378743Y-12357D02*
D03*
X386914Y13414D02*
D03*
X381256Y7757D02*
D03*
X375600Y2100D02*
D03*
X369943Y-3557D02*
D03*
X73989Y32619D02*
D03*
X68333Y26962D02*
D03*
X62675Y21305D02*
D03*
X57019Y15648D02*
D03*
X65189Y41419D02*
D03*
X59532Y35762D02*
D03*
X53875Y30106D02*
D03*
X48218Y24448D02*
D03*
D18*
X456491Y166641D02*
D03*
X461087Y162044D02*
D03*
X465683Y157448D02*
D03*
X470280Y152852D02*
D03*
X474875Y148256D02*
D03*
X479472Y143659D02*
D03*
X484068Y139064D02*
D03*
X488664Y134467D02*
D03*
X493260Y129871D02*
D03*
X497856Y125275D02*
D03*
X502453Y120678D02*
D03*
X507049Y116083D02*
D03*
X511645Y111486D02*
D03*
X516241Y106890D02*
D03*
X503160Y213310D02*
D03*
X507756Y208713D02*
D03*
X512352Y204117D02*
D03*
X516948Y199521D02*
D03*
X521544Y194925D02*
D03*
X526141Y190329D02*
D03*
X530737Y185732D02*
D03*
X535333Y181136D02*
D03*
X539929Y176540D02*
D03*
X544525Y171944D02*
D03*
X549122Y167348D02*
D03*
X553718Y162752D02*
D03*
X558314Y158155D02*
D03*
X562910Y153559D02*
D03*
D19*
X-13074Y78425D02*
D03*
X-700Y90800D02*
D03*
X24513Y228213D02*
D03*
X36887Y240588D02*
D03*
X372013Y-29387D02*
D03*
X384387Y-17012D02*
D03*
D20*
X345021Y43262D02*
D03*
X339969Y47353D02*
D03*
X334918Y51444D02*
D03*
X329866Y55534D02*
D03*
X324815Y59625D02*
D03*
D21*
X343088Y10367D02*
D03*
X293118Y50833D02*
D03*
D22*
X325929Y24263D02*
D03*
X310200Y37000D02*
D03*
D23*
X26586Y300713D02*
D03*
X42849Y284450D02*
D03*
X59113Y268186D02*
D03*
D24*
X87751Y329351D02*
D03*
D25*
X32408Y74282D02*
D03*
X12963Y54837D02*
D03*
D26*
X92813Y22787D02*
D03*
X105188Y10413D02*
D03*
X80813Y2087D02*
D03*
X93187Y-10287D02*
D03*
X113313Y-25913D02*
D03*
X125687Y-38287D02*
D03*
X137113Y-8613D02*
D03*
X149487Y-20987D02*
D03*
X415413Y3687D02*
D03*
X427787Y-8687D02*
D03*
D27*
X7823Y252477D02*
D03*
X-11623Y271923D02*
D03*
D28*
X-103751Y187853D02*
D03*
X-98094Y193510D02*
D03*
X-92437Y199167D02*
D03*
X-86780Y204824D02*
D03*
X-81124Y210481D02*
D03*
X-75466Y216137D02*
D03*
X-69810Y221794D02*
D03*
X-64153Y227451D02*
D03*
X-4049Y167347D02*
D03*
X-9706Y161690D02*
D03*
X-15362Y156033D02*
D03*
X-21019Y150377D02*
D03*
X-26676Y144719D02*
D03*
X-32333Y139063D02*
D03*
X-37990Y133406D02*
D03*
X-43647Y127749D02*
D03*
D29*
Y227451D02*
D03*
X-37990Y221794D02*
D03*
X-32333Y216137D02*
D03*
X-26676Y210481D02*
D03*
X-21019Y204824D02*
D03*
X-15362Y199167D02*
D03*
X-9706Y193510D02*
D03*
X-4049Y187853D02*
D03*
X-64153Y127749D02*
D03*
X-69810Y133406D02*
D03*
X-75466Y139063D02*
D03*
X-81124Y144719D02*
D03*
X-86780Y150377D02*
D03*
X-92437Y156033D02*
D03*
X-98094Y161690D02*
D03*
X-103751Y167347D02*
D03*
D30*
X92456Y227955D02*
D03*
X144541Y280041D02*
D03*
D31*
X401408Y-36291D02*
D03*
X384792Y-52909D02*
D03*
X-11792Y108808D02*
D03*
X-28408Y92192D02*
D03*
X50308Y55108D02*
D03*
X33692Y38491D02*
D03*
D32*
X462485Y87156D02*
D03*
X492184Y57457D02*
D03*
X476627Y41901D02*
D03*
X446929Y71600D02*
D03*
D33*
X429492Y25309D02*
D03*
X446108Y8692D02*
D03*
D55*
X170795Y6395D02*
D03*
X188755Y24356D02*
D03*
X206716Y42316D02*
D03*
X224676Y60277D02*
D03*
X242637Y78237D02*
D03*
X260597Y96198D02*
D03*
X278558Y114158D02*
D03*
X296519Y132119D02*
D03*
X314479Y150079D02*
D03*
X332439Y168040D02*
D03*
X350400Y186000D02*
D03*
X368360Y203961D02*
D03*
X386321Y221921D02*
D03*
X404282Y239882D02*
D03*
X422242Y257843D02*
D03*
X80561Y203440D02*
D03*
X62600Y185479D02*
D03*
X44640Y167519D02*
D03*
X62600Y221400D02*
D03*
X44640Y203440D02*
D03*
X26679Y185479D02*
D03*
X135934Y26635D02*
D03*
X153895Y44595D02*
D03*
X171855Y62556D02*
D03*
X189816Y80517D02*
D03*
X207776Y98477D02*
D03*
X225737Y116437D02*
D03*
X243697Y134398D02*
D03*
X261658Y152358D02*
D03*
X279618Y170319D02*
D03*
X297579Y188279D02*
D03*
X315539Y206240D02*
D03*
X333500Y224200D02*
D03*
X351460Y242161D02*
D03*
X369421Y260121D02*
D03*
X387382Y278082D02*
D03*
D56*
X315489Y67176D02*
D03*
X354346Y35710D02*
D03*
D57*
X345334Y8691D02*
D03*
X290934Y52743D02*
D03*
D03*
D58*
X206598Y174848D02*
D03*
X11272Y313532D02*
D03*
X-34702Y191866D02*
D03*
X-53244Y117952D02*
D03*
X-48926Y148432D02*
D03*
X-25050Y175864D02*
D03*
X31084Y106268D02*
D03*
X100426Y-36480D02*
D03*
X89758Y255874D02*
D03*
X76423Y262351D02*
D03*
X2382Y233776D02*
D03*
X52420Y300713D02*
D03*
X561690Y117190D02*
D03*
X276702Y75280D02*
D03*
X-21748Y178404D02*
D03*
X-65182Y156560D02*
D03*
X112872Y286608D02*
D03*
X-64674Y177134D02*
D03*
X-60610Y185770D02*
D03*
X-24288Y247492D02*
D03*
X26679Y262351D02*
D03*
X-2444Y141320D02*
D03*
X221330Y159608D02*
D03*
X512668Y162291D02*
D03*
X570930Y178475D02*
D03*
X424412Y41237D02*
D03*
X413608Y-62561D02*
D03*
X-61880Y100772D02*
D03*
X-2444Y138473D02*
D03*
X443390Y162044D02*
D03*
X366283Y-52909D02*
D03*
X270860Y27528D02*
D03*
X479902Y92552D02*
D03*
X533750Y152598D02*
D03*
X-38004Y110840D02*
D03*
X32354Y319374D02*
D03*
X-47402Y168752D02*
D03*
X114396Y-51974D02*
D03*
X-75850Y190850D02*
D03*
X77215Y245714D02*
D03*
X581248Y146400D02*
D03*
X544672Y135224D02*
D03*
X327248Y85186D02*
D03*
X416402Y-22092D02*
D03*
X340202Y-31908D02*
D03*
X476346Y177134D02*
D03*
X401924Y-6852D02*
D03*
X446882Y53326D02*
D03*
X368904Y-52990D02*
D03*
X25242Y140050D02*
D03*
X-11792Y124810D02*
D03*
X81376Y48356D02*
D03*
X12796Y162656D02*
D03*
X153258Y-1428D02*
D03*
X533938Y106890D02*
D03*
X512668Y68233D02*
D03*
X502453Y138375D02*
D03*
X488664Y116770D02*
D03*
X87751Y354825D02*
D03*
X156052Y308255D02*
D03*
X503160Y231006D02*
D03*
X521544Y212621D02*
D03*
M02*
