G04*
G04 #@! TF.GenerationSoftware,Altium Limited,Altium Designer,23.4.1 (23)*
G04*
G04 Layer_Color=8388736*
%FSLAX44Y44*%
%MOMM*%
G71*
G04*
G04 #@! TF.SameCoordinates,7EF6362F-2363-4B38-88DE-BB285B2C36F4*
G04*
G04*
G04 #@! TF.FilePolarity,Negative*
G04*
G01*
G75*
G04:AMPARAMS|DCode=34|XSize=0.7032mm|YSize=0.8032mm|CornerRadius=0mm|HoleSize=0mm|Usage=FLASHONLY|Rotation=45.000|XOffset=0mm|YOffset=0mm|HoleType=Round|Shape=Rectangle|*
%AMROTATEDRECTD34*
4,1,4,0.0354,-0.5326,-0.5326,0.0354,-0.0354,0.5326,0.5326,-0.0354,0.0354,-0.5326,0.0*
%
%ADD34ROTATEDRECTD34*%

G04:AMPARAMS|DCode=35|XSize=0.6532mm|YSize=2.6032mm|CornerRadius=0mm|HoleSize=0mm|Usage=FLASHONLY|Rotation=135.000|XOffset=0mm|YOffset=0mm|HoleType=Round|Shape=Round|*
%AMOVALD35*
21,1,1.9500,0.6532,0.0000,0.0000,225.0*
1,1,0.6532,0.6894,0.6894*
1,1,0.6532,-0.6894,-0.6894*
%
%ADD35OVALD35*%

G04:AMPARAMS|DCode=36|XSize=1.7032mm|YSize=1.5032mm|CornerRadius=0mm|HoleSize=0mm|Usage=FLASHONLY|Rotation=135.000|XOffset=0mm|YOffset=0mm|HoleType=Round|Shape=Rectangle|*
%AMROTATEDRECTD36*
4,1,4,1.1336,-0.0707,0.0707,-1.1336,-1.1336,0.0707,-0.0707,1.1336,1.1336,-0.0707,0.0*
%
%ADD36ROTATEDRECTD36*%

G04:AMPARAMS|DCode=37|XSize=0.6032mm|YSize=1.5532mm|CornerRadius=0mm|HoleSize=0mm|Usage=FLASHONLY|Rotation=321.000|XOffset=0mm|YOffset=0mm|HoleType=Round|Shape=Rectangle|*
%AMROTATEDRECTD37*
4,1,4,-0.7231,-0.4137,0.2543,0.7933,0.7231,0.4137,-0.2543,-0.7933,-0.7231,-0.4137,0.0*
%
%ADD37ROTATEDRECTD37*%

G04:AMPARAMS|DCode=38|XSize=2.0032mm|YSize=2.1032mm|CornerRadius=0mm|HoleSize=0mm|Usage=FLASHONLY|Rotation=321.000|XOffset=0mm|YOffset=0mm|HoleType=Round|Shape=Rectangle|*
%AMROTATEDRECTD38*
4,1,4,-1.4402,-0.1869,-0.1166,1.4476,1.4402,0.1869,0.1166,-1.4476,-1.4402,-0.1869,0.0*
%
%ADD38ROTATEDRECTD38*%

G04:AMPARAMS|DCode=39|XSize=1.7032mm|YSize=2.1032mm|CornerRadius=0mm|HoleSize=0mm|Usage=FLASHONLY|Rotation=321.000|XOffset=0mm|YOffset=0mm|HoleType=Round|Shape=Rectangle|*
%AMROTATEDRECTD39*
4,1,4,-1.3236,-0.2813,-0.0000,1.3532,1.3236,0.2813,0.0000,-1.3532,-1.3236,-0.2813,0.0*
%
%ADD39ROTATEDRECTD39*%

G04:AMPARAMS|DCode=40|XSize=1.2032mm|YSize=2.0532mm|CornerRadius=0mm|HoleSize=0mm|Usage=FLASHONLY|Rotation=135.000|XOffset=0mm|YOffset=0mm|HoleType=Round|Shape=Rectangle|*
%AMROTATEDRECTD40*
4,1,4,1.1513,0.3005,-0.3005,-1.1513,-1.1513,-0.3005,0.3005,1.1513,1.1513,0.3005,0.0*
%
%ADD40ROTATEDRECTD40*%

G04:AMPARAMS|DCode=41|XSize=3.4032mm|YSize=2.0532mm|CornerRadius=0mm|HoleSize=0mm|Usage=FLASHONLY|Rotation=135.000|XOffset=0mm|YOffset=0mm|HoleType=Round|Shape=Rectangle|*
%AMROTATEDRECTD41*
4,1,4,1.9291,-0.4773,0.4773,-1.9291,-1.9291,0.4773,-0.4773,1.9291,1.9291,-0.4773,0.0*
%
%ADD41ROTATEDRECTD41*%

G04:AMPARAMS|DCode=42|XSize=1.7032mm|YSize=2.1532mm|CornerRadius=0mm|HoleSize=0mm|Usage=FLASHONLY|Rotation=135.000|XOffset=0mm|YOffset=0mm|HoleType=Round|Shape=Rectangle|*
%AMROTATEDRECTD42*
4,1,4,1.3635,0.1591,-0.1591,-1.3635,-1.3635,-0.1591,0.1591,1.3635,1.3635,0.1591,0.0*
%
%ADD42ROTATEDRECTD42*%

G04:AMPARAMS|DCode=43|XSize=1.7032mm|YSize=1.5032mm|CornerRadius=0mm|HoleSize=0mm|Usage=FLASHONLY|Rotation=45.000|XOffset=0mm|YOffset=0mm|HoleType=Round|Shape=Rectangle|*
%AMROTATEDRECTD43*
4,1,4,-0.0707,-1.1336,-1.1336,-0.0707,0.0707,1.1336,1.1336,0.0707,-0.0707,-1.1336,0.0*
%
%ADD43ROTATEDRECTD43*%

G04:AMPARAMS|DCode=44|XSize=1.7032mm|YSize=2.1532mm|CornerRadius=0mm|HoleSize=0mm|Usage=FLASHONLY|Rotation=45.000|XOffset=0mm|YOffset=0mm|HoleType=Round|Shape=Rectangle|*
%AMROTATEDRECTD44*
4,1,4,0.1591,-1.3635,-1.3635,0.1591,-0.1591,1.3635,1.3635,-0.1591,0.1591,-1.3635,0.0*
%
%ADD44ROTATEDRECTD44*%

G04:AMPARAMS|DCode=45|XSize=0.8032mm|YSize=2.1532mm|CornerRadius=0mm|HoleSize=0mm|Usage=FLASHONLY|Rotation=45.000|XOffset=0mm|YOffset=0mm|HoleType=Round|Shape=Round|*
%AMOVALD45*
21,1,1.3500,0.8032,0.0000,0.0000,135.0*
1,1,0.8032,0.4773,-0.4773*
1,1,0.8032,-0.4773,0.4773*
%
%ADD45OVALD45*%

G04:AMPARAMS|DCode=46|XSize=0.8032mm|YSize=2.1532mm|CornerRadius=0mm|HoleSize=0mm|Usage=FLASHONLY|Rotation=135.000|XOffset=0mm|YOffset=0mm|HoleType=Round|Shape=Round|*
%AMOVALD46*
21,1,1.3500,0.8032,0.0000,0.0000,225.0*
1,1,0.8032,0.4773,0.4773*
1,1,0.8032,-0.4773,-0.4773*
%
%ADD46OVALD46*%

G04:AMPARAMS|DCode=47|XSize=1.6032mm|YSize=1.7032mm|CornerRadius=0mm|HoleSize=0mm|Usage=FLASHONLY|Rotation=135.000|XOffset=0mm|YOffset=0mm|HoleType=Round|Shape=Rectangle|*
%AMROTATEDRECTD47*
4,1,4,1.1690,0.0354,-0.0354,-1.1690,-1.1690,-0.0354,0.0354,1.1690,1.1690,0.0354,0.0*
%
%ADD47ROTATEDRECTD47*%

G04:AMPARAMS|DCode=48|XSize=1.4532mm|YSize=1.3032mm|CornerRadius=0mm|HoleSize=0mm|Usage=FLASHONLY|Rotation=135.000|XOffset=0mm|YOffset=0mm|HoleType=Round|Shape=Rectangle|*
%AMROTATEDRECTD48*
4,1,4,0.9745,-0.0530,0.0530,-0.9745,-0.9745,0.0530,-0.0530,0.9745,0.9745,-0.0530,0.0*
%
%ADD48ROTATEDRECTD48*%

G04:AMPARAMS|DCode=49|XSize=1.8032mm|YSize=1.6032mm|CornerRadius=0mm|HoleSize=0mm|Usage=FLASHONLY|Rotation=315.000|XOffset=0mm|YOffset=0mm|HoleType=Round|Shape=Rectangle|*
%AMROTATEDRECTD49*
4,1,4,-1.2044,0.0707,-0.0707,1.2044,1.2044,-0.0707,0.0707,-1.2044,-1.2044,0.0707,0.0*
%
%ADD49ROTATEDRECTD49*%

G04:AMPARAMS|DCode=50|XSize=1.4532mm|YSize=1.3032mm|CornerRadius=0mm|HoleSize=0mm|Usage=FLASHONLY|Rotation=45.000|XOffset=0mm|YOffset=0mm|HoleType=Round|Shape=Rectangle|*
%AMROTATEDRECTD50*
4,1,4,-0.0530,-0.9745,-0.9745,-0.0530,0.0530,0.9745,0.9745,0.0530,-0.0530,-0.9745,0.0*
%
%ADD50ROTATEDRECTD50*%

%ADD51C,2.2032*%
%ADD52C,1.6532*%
G04:AMPARAMS|DCode=53|XSize=0.8032mm|YSize=1.5032mm|CornerRadius=0.2516mm|HoleSize=0mm|Usage=FLASHONLY|Rotation=321.000|XOffset=0mm|YOffset=0mm|HoleType=Round|Shape=RoundedRectangle|*
%AMROUNDEDRECTD53*
21,1,0.8032,1.0000,0,0,321.0*
21,1,0.3000,1.5032,0,0,321.0*
1,1,0.5032,-0.1981,-0.4830*
1,1,0.5032,-0.4312,-0.2942*
1,1,0.5032,0.1981,0.4830*
1,1,0.5032,0.4312,0.2942*
%
%ADD53ROUNDEDRECTD53*%
%ADD54C,1.4732*%
D34*
X395714Y4613D02*
D03*
X390057Y-1043D02*
D03*
X384400Y-6701D02*
D03*
X378743Y-12357D02*
D03*
X386914Y13414D02*
D03*
X381256Y7757D02*
D03*
X375600Y2100D02*
D03*
X369943Y-3557D02*
D03*
X73989Y32619D02*
D03*
X68333Y26962D02*
D03*
X62675Y21305D02*
D03*
X57019Y15648D02*
D03*
X65189Y41419D02*
D03*
X59532Y35762D02*
D03*
X53875Y30106D02*
D03*
X48218Y24448D02*
D03*
D35*
X456491Y166641D02*
D03*
X461087Y162044D02*
D03*
X465683Y157448D02*
D03*
X470280Y152852D02*
D03*
X474875Y148256D02*
D03*
X479472Y143659D02*
D03*
X484068Y139064D02*
D03*
X488664Y134467D02*
D03*
X493260Y129871D02*
D03*
X497856Y125275D02*
D03*
X502453Y120678D02*
D03*
X507049Y116083D02*
D03*
X511645Y111486D02*
D03*
X516241Y106890D02*
D03*
X503160Y213310D02*
D03*
X507756Y208713D02*
D03*
X512352Y204117D02*
D03*
X516948Y199521D02*
D03*
X521544Y194925D02*
D03*
X526141Y190329D02*
D03*
X530737Y185732D02*
D03*
X535333Y181136D02*
D03*
X539929Y176540D02*
D03*
X544525Y171944D02*
D03*
X549122Y167348D02*
D03*
X553718Y162752D02*
D03*
X558314Y158155D02*
D03*
X562910Y153559D02*
D03*
D36*
X-13074Y78425D02*
D03*
X-700Y90800D02*
D03*
X24513Y228213D02*
D03*
X36887Y240588D02*
D03*
X372013Y-29387D02*
D03*
X384387Y-17012D02*
D03*
D37*
X345021Y43262D02*
D03*
X339969Y47353D02*
D03*
X334918Y51444D02*
D03*
X329866Y55534D02*
D03*
X324815Y59625D02*
D03*
D38*
X343088Y10367D02*
D03*
X293118Y50833D02*
D03*
D39*
X325929Y24263D02*
D03*
X310200Y37000D02*
D03*
D40*
X26586Y300713D02*
D03*
X42849Y284450D02*
D03*
X59113Y268186D02*
D03*
D41*
X87751Y329351D02*
D03*
D42*
X32408Y74282D02*
D03*
X12963Y54837D02*
D03*
D43*
X92813Y22787D02*
D03*
X105188Y10413D02*
D03*
X80813Y2087D02*
D03*
X93187Y-10287D02*
D03*
X113313Y-25913D02*
D03*
X125687Y-38287D02*
D03*
X137113Y-8613D02*
D03*
X149487Y-20987D02*
D03*
X415413Y3687D02*
D03*
X427787Y-8687D02*
D03*
D44*
X7823Y252477D02*
D03*
X-11623Y271923D02*
D03*
D45*
X-103751Y187853D02*
D03*
X-98094Y193510D02*
D03*
X-92437Y199167D02*
D03*
X-86780Y204824D02*
D03*
X-81124Y210481D02*
D03*
X-75466Y216137D02*
D03*
X-69810Y221794D02*
D03*
X-64153Y227451D02*
D03*
X-4049Y167347D02*
D03*
X-9706Y161690D02*
D03*
X-15362Y156033D02*
D03*
X-21019Y150377D02*
D03*
X-26676Y144719D02*
D03*
X-32333Y139063D02*
D03*
X-37990Y133406D02*
D03*
X-43647Y127749D02*
D03*
D46*
Y227451D02*
D03*
X-37990Y221794D02*
D03*
X-32333Y216137D02*
D03*
X-26676Y210481D02*
D03*
X-21019Y204824D02*
D03*
X-15362Y199167D02*
D03*
X-9706Y193510D02*
D03*
X-4049Y187853D02*
D03*
X-64153Y127749D02*
D03*
X-69810Y133406D02*
D03*
X-75466Y139063D02*
D03*
X-81124Y144719D02*
D03*
X-86780Y150377D02*
D03*
X-92437Y156033D02*
D03*
X-98094Y161690D02*
D03*
X-103751Y167347D02*
D03*
D47*
X92456Y227955D02*
D03*
X144541Y280041D02*
D03*
D48*
X401408Y-36291D02*
D03*
X384792Y-52909D02*
D03*
X-11792Y108808D02*
D03*
X-28408Y92192D02*
D03*
X50308Y55108D02*
D03*
X33692Y38491D02*
D03*
D49*
X462485Y87156D02*
D03*
X492184Y57457D02*
D03*
X476627Y41901D02*
D03*
X446929Y71600D02*
D03*
D50*
X429492Y25309D02*
D03*
X446108Y8692D02*
D03*
D51*
X170795Y6395D02*
D03*
X188755Y24356D02*
D03*
X206716Y42316D02*
D03*
X224676Y60277D02*
D03*
X242637Y78237D02*
D03*
X260597Y96198D02*
D03*
X278558Y114158D02*
D03*
X296519Y132119D02*
D03*
X314479Y150079D02*
D03*
X332439Y168040D02*
D03*
X350400Y186000D02*
D03*
X368360Y203961D02*
D03*
X386321Y221921D02*
D03*
X404282Y239882D02*
D03*
X422242Y257843D02*
D03*
X80561Y203440D02*
D03*
X62600Y185479D02*
D03*
X44640Y167519D02*
D03*
X62600Y221400D02*
D03*
X44640Y203440D02*
D03*
X26679Y185479D02*
D03*
X135934Y26635D02*
D03*
X153895Y44595D02*
D03*
X171855Y62556D02*
D03*
X189816Y80517D02*
D03*
X207776Y98477D02*
D03*
X225737Y116437D02*
D03*
X243697Y134398D02*
D03*
X261658Y152358D02*
D03*
X279618Y170319D02*
D03*
X297579Y188279D02*
D03*
X315539Y206240D02*
D03*
X333500Y224200D02*
D03*
X351460Y242161D02*
D03*
X369421Y260121D02*
D03*
X387382Y278082D02*
D03*
D52*
X315489Y67176D02*
D03*
X354346Y35710D02*
D03*
D53*
X345334Y8691D02*
D03*
X290934Y52743D02*
D03*
D03*
D54*
X206598Y174848D02*
D03*
X11272Y313532D02*
D03*
X-34702Y191866D02*
D03*
X-53244Y117952D02*
D03*
X-48926Y148432D02*
D03*
X-25050Y175864D02*
D03*
X31084Y106268D02*
D03*
X100426Y-36480D02*
D03*
X89758Y255874D02*
D03*
X76423Y262351D02*
D03*
X2382Y233776D02*
D03*
X52420Y300713D02*
D03*
X561690Y117190D02*
D03*
X276702Y75280D02*
D03*
X-21748Y178404D02*
D03*
X-65182Y156560D02*
D03*
X112872Y286608D02*
D03*
X-64674Y177134D02*
D03*
X-60610Y185770D02*
D03*
X-24288Y247492D02*
D03*
X26679Y262351D02*
D03*
X-2444Y141320D02*
D03*
X221330Y159608D02*
D03*
X512668Y162291D02*
D03*
X570930Y178475D02*
D03*
X424412Y41237D02*
D03*
X413608Y-62561D02*
D03*
X-61880Y100772D02*
D03*
X-2444Y138473D02*
D03*
X443390Y162044D02*
D03*
X366283Y-52909D02*
D03*
X270860Y27528D02*
D03*
X479902Y92552D02*
D03*
X533750Y152598D02*
D03*
X-38004Y110840D02*
D03*
X32354Y319374D02*
D03*
X-47402Y168752D02*
D03*
X114396Y-51974D02*
D03*
X-75850Y190850D02*
D03*
X77215Y245714D02*
D03*
X581248Y146400D02*
D03*
X544672Y135224D02*
D03*
X327248Y85186D02*
D03*
X416402Y-22092D02*
D03*
X340202Y-31908D02*
D03*
X476346Y177134D02*
D03*
X401924Y-6852D02*
D03*
X446882Y53326D02*
D03*
X368904Y-52990D02*
D03*
X25242Y140050D02*
D03*
X-11792Y124810D02*
D03*
X81376Y48356D02*
D03*
X12796Y162656D02*
D03*
X153258Y-1428D02*
D03*
X533938Y106890D02*
D03*
X512668Y68233D02*
D03*
X502453Y138375D02*
D03*
X488664Y116770D02*
D03*
X87751Y354825D02*
D03*
X156052Y308255D02*
D03*
X503160Y231006D02*
D03*
X521544Y212621D02*
D03*
M02*
