G04*
G04 #@! TF.GenerationSoftware,Altium Limited,Altium Designer,23.4.1 (23)*
G04*
G04 Layer_Physical_Order=3*
G04 Layer_Color=36540*
%FSLAX44Y44*%
%MOMM*%
G71*
G04*
G04 #@! TF.SameCoordinates,7EF6362F-2363-4B38-88DE-BB285B2C36F4*
G04*
G04*
G04 #@! TF.FilePolarity,Positive*
G04*
G01*
G75*
%ADD14C,0.2540*%
%ADD55C,2.0000*%
%ADD56C,1.4500*%
G04:AMPARAMS|DCode=57|XSize=0.6mm|YSize=1.3mm|CornerRadius=0.15mm|HoleSize=0mm|Usage=FLASHONLY|Rotation=321.000|XOffset=0mm|YOffset=0mm|HoleType=Round|Shape=RoundedRectangle|*
%AMROUNDEDRECTD57*
21,1,0.6000,1.0000,0,0,321.0*
21,1,0.3000,1.3000,0,0,321.0*
1,1,0.3000,-0.1981,-0.4830*
1,1,0.3000,-0.4312,-0.2942*
1,1,0.3000,0.1981,0.4830*
1,1,0.3000,0.4312,0.2942*
%
%ADD57ROUNDEDRECTD57*%
%ADD58C,1.2700*%
D14*
X69946Y255874D02*
X89758D01*
X69946D02*
X76423Y262351D01*
X26679Y212607D02*
X69946Y255874D01*
X26679Y212607D02*
Y262351D01*
X96362Y285084D02*
X206598Y174848D01*
X39720Y285084D02*
X96362D01*
X11272Y313532D02*
X39720Y285084D01*
X26679Y185479D02*
Y212607D01*
X114396Y-51974D02*
Y-33178D01*
X-22002Y103220D02*
X114396Y-33178D01*
X-22002Y103220D02*
Y123540D01*
X-35210Y136748D02*
X-22002Y123540D01*
X-35210Y136748D02*
Y171800D01*
X-44862Y181452D02*
X-35210Y171800D01*
X-44862Y181452D02*
Y189072D01*
X-51720Y195930D02*
X-44862Y189072D01*
X-65436Y195930D02*
X-51720D01*
X-68484Y198978D02*
X-65436Y195930D01*
X-68484Y198978D02*
Y207360D01*
X-42068Y233776D01*
X2382D01*
X195168Y147006D02*
X225737Y116437D01*
X195168Y147006D02*
Y177388D01*
X99918Y272638D02*
X195168Y177388D01*
X-36480Y272638D02*
X99918D01*
X-86010Y223108D02*
X-36480Y272638D01*
X-86010Y186024D02*
Y223108D01*
Y186024D02*
X-77120Y177134D01*
X-64674D01*
X293843Y150079D02*
X314479D01*
X164688Y20924D02*
X293843Y150079D01*
X74518Y20924D02*
X164688D01*
X13997Y81445D02*
X74518Y20924D01*
X13997Y81445D02*
Y146358D01*
X27Y160327D02*
X13997Y146358D01*
X27Y160327D02*
Y180164D01*
X-23884Y204075D02*
X27Y180164D01*
X-63404Y204075D02*
X-23884D01*
X374238Y15129D02*
Y18638D01*
X384398Y28798D01*
X457042D01*
X502762Y74518D01*
Y117698D01*
X463700Y156760D02*
X502762Y117698D01*
X463700Y156760D02*
Y244390D01*
X436214Y271876D02*
X463700Y244390D01*
X400146Y271876D02*
X436214D01*
X181586Y53316D02*
X400146Y271876D01*
X158716Y53316D02*
X181586D01*
X171855Y62556D02*
Y82193D01*
X197200Y107538D01*
Y135478D01*
X115158Y217520D02*
X197200Y135478D01*
X94641Y217520D02*
X115158D01*
X80561Y203440D02*
X94641Y217520D01*
X62600Y158104D02*
Y185479D01*
X56992Y152496D02*
X62600Y158104D01*
X22956Y152496D02*
X56992D01*
X12796Y162656D02*
X22956Y152496D01*
D55*
X170795Y6395D02*
D03*
X188755Y24356D02*
D03*
X206716Y42316D02*
D03*
X224676Y60277D02*
D03*
X242637Y78237D02*
D03*
X260597Y96198D02*
D03*
X278558Y114158D02*
D03*
X296519Y132119D02*
D03*
X314479Y150079D02*
D03*
X332439Y168040D02*
D03*
X350400Y186000D02*
D03*
X368360Y203961D02*
D03*
X386321Y221921D02*
D03*
X404282Y239882D02*
D03*
X422242Y257843D02*
D03*
X80561Y203440D02*
D03*
X62600Y185479D02*
D03*
X44640Y167519D02*
D03*
X62600Y221400D02*
D03*
X44640Y203440D02*
D03*
X26679Y185479D02*
D03*
X135934Y26635D02*
D03*
X153895Y44595D02*
D03*
X171855Y62556D02*
D03*
X189816Y80517D02*
D03*
X207776Y98477D02*
D03*
X225737Y116437D02*
D03*
X243697Y134398D02*
D03*
X261658Y152358D02*
D03*
X279618Y170319D02*
D03*
X297579Y188279D02*
D03*
X315539Y206240D02*
D03*
X333500Y224200D02*
D03*
X351460Y242161D02*
D03*
X369421Y260121D02*
D03*
X387382Y278082D02*
D03*
D56*
X315489Y67176D02*
D03*
X354346Y35710D02*
D03*
D57*
X345334Y8691D02*
D03*
X290934Y52743D02*
D03*
D03*
D58*
X206598Y174848D02*
D03*
X11272Y313532D02*
D03*
X-34702Y191866D02*
D03*
X-53244Y117952D02*
D03*
X-48926Y148432D02*
D03*
X-25050Y175864D02*
D03*
X31084Y106268D02*
D03*
X100426Y-36480D02*
D03*
X89758Y255874D02*
D03*
X76423Y262351D02*
D03*
X2382Y233776D02*
D03*
X52420Y300713D02*
D03*
X561690Y117190D02*
D03*
X276702Y75280D02*
D03*
X-21748Y178404D02*
D03*
X-65182Y156560D02*
D03*
X112872Y286608D02*
D03*
X-64674Y177134D02*
D03*
X-60610Y185770D02*
D03*
X-24288Y247492D02*
D03*
X26679Y262351D02*
D03*
X-2444Y141320D02*
D03*
X221330Y159608D02*
D03*
X512668Y162291D02*
D03*
X570930Y178475D02*
D03*
X424412Y41237D02*
D03*
X413608Y-62561D02*
D03*
X-61880Y100772D02*
D03*
X-2444Y138473D02*
D03*
X443390Y162044D02*
D03*
X366283Y-52909D02*
D03*
X270860Y27528D02*
D03*
X479902Y92552D02*
D03*
X533750Y152598D02*
D03*
X-38004Y110840D02*
D03*
X32354Y319374D02*
D03*
X-47402Y168752D02*
D03*
X114396Y-51974D02*
D03*
X-75850Y190850D02*
D03*
X77215Y245714D02*
D03*
X581248Y146400D02*
D03*
X544672Y135224D02*
D03*
X327248Y85186D02*
D03*
X416402Y-22092D02*
D03*
X340202Y-31908D02*
D03*
X476346Y177134D02*
D03*
X401924Y-6852D02*
D03*
X446882Y53326D02*
D03*
X368904Y-52990D02*
D03*
X25242Y140050D02*
D03*
X-11792Y124810D02*
D03*
X81376Y48356D02*
D03*
X12796Y162656D02*
D03*
X153258Y-1428D02*
D03*
X533938Y106890D02*
D03*
X512668Y68233D02*
D03*
X502453Y138375D02*
D03*
X488664Y116770D02*
D03*
X87751Y354825D02*
D03*
X156052Y308255D02*
D03*
X503160Y231006D02*
D03*
X521544Y212621D02*
D03*
M02*
