G04*
G04 #@! TF.GenerationSoftware,Altium Limited,Altium Designer,23.4.1 (23)*
G04*
G04 Layer_Physical_Order=6*
G04 Layer_Color=16711680*
%FSLAX44Y44*%
%MOMM*%
G71*
G04*
G04 #@! TF.SameCoordinates,7EF6362F-2363-4B38-88DE-BB285B2C36F4*
G04*
G04*
G04 #@! TF.FilePolarity,Positive*
G04*
G01*
G75*
%ADD14C,0.2540*%
%ADD55C,2.0000*%
%ADD56C,1.4500*%
G04:AMPARAMS|DCode=57|XSize=0.6mm|YSize=1.3mm|CornerRadius=0.15mm|HoleSize=0mm|Usage=FLASHONLY|Rotation=321.000|XOffset=0mm|YOffset=0mm|HoleType=Round|Shape=RoundedRectangle|*
%AMROUNDEDRECTD57*
21,1,0.6000,1.0000,0,0,321.0*
21,1,0.3000,1.3000,0,0,321.0*
1,1,0.3000,-0.1981,-0.4830*
1,1,0.3000,-0.4312,-0.2942*
1,1,0.3000,0.1981,0.4830*
1,1,0.3000,0.4312,0.2942*
%
%ADD57ROUNDEDRECTD57*%
%ADD58C,1.2700*%
D14*
X340202Y-26828D02*
X359760Y-7270D01*
X266739Y132119D02*
X296519D01*
X145638Y11018D02*
X266739Y132119D01*
X87472Y11018D02*
X145638D01*
X15082Y83408D02*
X87472Y11018D01*
X15082Y83408D02*
Y139185D01*
X2636Y151631D02*
X15082Y139185D01*
X2636Y151631D02*
Y176880D01*
X-12350Y191866D02*
X2636Y176880D01*
X-34702Y191866D02*
X-12350D01*
X221330Y159608D02*
X241142D01*
X287774Y206240D01*
X315539D01*
X359760Y-46386D02*
X366283Y-52909D01*
X359760Y-46386D02*
Y-7270D01*
X476346Y109316D01*
X-38004Y110840D02*
Y126080D01*
X-43592Y131668D02*
X-38004Y126080D01*
X-82708Y131668D02*
X-43592D01*
X-86010Y134970D02*
X-82708Y131668D01*
X-86010Y134970D02*
Y201010D01*
X32354Y319374D01*
X220886Y134398D02*
X243697D01*
X119984Y235300D02*
X220886Y134398D01*
X19606Y235300D02*
X119984D01*
X10857Y244049D02*
X19606Y235300D01*
X-2839Y244049D02*
X10857D01*
X-47402Y199486D02*
X-2839Y244049D01*
X-47402Y168752D02*
Y199486D01*
X453232Y75788D02*
X487014D01*
X434690Y57246D02*
X453232Y75788D01*
X434690Y34640D02*
Y57246D01*
X430880Y30830D02*
X434690Y34640D01*
X422752Y30830D02*
X430880D01*
X391764Y-158D02*
X422752Y30830D01*
X391764Y-11080D02*
Y-158D01*
Y-11080D02*
X402776Y-22092D01*
X416402D01*
X340202Y-31908D02*
Y-26828D01*
X476346Y109316D02*
Y177134D01*
X401924Y-6852D02*
X446882Y38106D01*
Y53326D01*
D55*
X170795Y6395D02*
D03*
X188755Y24356D02*
D03*
X206716Y42316D02*
D03*
X224676Y60277D02*
D03*
X242637Y78237D02*
D03*
X260597Y96198D02*
D03*
X278558Y114158D02*
D03*
X296519Y132119D02*
D03*
X314479Y150079D02*
D03*
X332439Y168040D02*
D03*
X350400Y186000D02*
D03*
X368360Y203961D02*
D03*
X386321Y221921D02*
D03*
X404282Y239882D02*
D03*
X422242Y257843D02*
D03*
X80561Y203440D02*
D03*
X62600Y185479D02*
D03*
X44640Y167519D02*
D03*
X62600Y221400D02*
D03*
X44640Y203440D02*
D03*
X26679Y185479D02*
D03*
X135934Y26635D02*
D03*
X153895Y44595D02*
D03*
X171855Y62556D02*
D03*
X189816Y80517D02*
D03*
X207776Y98477D02*
D03*
X225737Y116437D02*
D03*
X243697Y134398D02*
D03*
X261658Y152358D02*
D03*
X279618Y170319D02*
D03*
X297579Y188279D02*
D03*
X315539Y206240D02*
D03*
X333500Y224200D02*
D03*
X351460Y242161D02*
D03*
X369421Y260121D02*
D03*
X387382Y278082D02*
D03*
D56*
X315489Y67176D02*
D03*
X354346Y35710D02*
D03*
D57*
X345334Y8691D02*
D03*
X290934Y52743D02*
D03*
D03*
D58*
X206598Y174848D02*
D03*
X11272Y313532D02*
D03*
X-34702Y191866D02*
D03*
X-53244Y117952D02*
D03*
X-48926Y148432D02*
D03*
X-25050Y175864D02*
D03*
X31084Y106268D02*
D03*
X100426Y-36480D02*
D03*
X89758Y255874D02*
D03*
X76423Y262351D02*
D03*
X2382Y233776D02*
D03*
X52420Y300713D02*
D03*
X561690Y117190D02*
D03*
X276702Y75280D02*
D03*
X-21748Y178404D02*
D03*
X-65182Y156560D02*
D03*
X112872Y286608D02*
D03*
X-64674Y177134D02*
D03*
X-60610Y185770D02*
D03*
X-24288Y247492D02*
D03*
X26679Y262351D02*
D03*
X-2444Y141320D02*
D03*
X221330Y159608D02*
D03*
X512668Y162291D02*
D03*
X570930Y178475D02*
D03*
X424412Y41237D02*
D03*
X413608Y-62561D02*
D03*
X-61880Y100772D02*
D03*
X-2444Y138473D02*
D03*
X443390Y162044D02*
D03*
X366283Y-52909D02*
D03*
X270860Y27528D02*
D03*
X479902Y92552D02*
D03*
X533750Y152598D02*
D03*
X-38004Y110840D02*
D03*
X32354Y319374D02*
D03*
X-47402Y168752D02*
D03*
X114396Y-51974D02*
D03*
X-75850Y190850D02*
D03*
X77215Y245714D02*
D03*
X581248Y146400D02*
D03*
X544672Y135224D02*
D03*
X327248Y85186D02*
D03*
X416402Y-22092D02*
D03*
X340202Y-31908D02*
D03*
X476346Y177134D02*
D03*
X401924Y-6852D02*
D03*
X446882Y53326D02*
D03*
X368904Y-52990D02*
D03*
X25242Y140050D02*
D03*
X-11792Y124810D02*
D03*
X81376Y48356D02*
D03*
X12796Y162656D02*
D03*
X153258Y-1428D02*
D03*
X533938Y106890D02*
D03*
X512668Y68233D02*
D03*
X502453Y138375D02*
D03*
X488664Y116770D02*
D03*
X87751Y354825D02*
D03*
X156052Y308255D02*
D03*
X503160Y231006D02*
D03*
X521544Y212621D02*
D03*
M02*
