G04*
G04 #@! TF.GenerationSoftware,Altium Limited,Altium Designer,23.4.1 (23)*
G04*
G04 Layer_Color=65535*
%FSLAX44Y44*%
%MOMM*%
G71*
G04*
G04 #@! TF.SameCoordinates,7EF6362F-2363-4B38-88DE-BB285B2C36F4*
G04*
G04*
G04 #@! TF.FilePolarity,Positive*
G04*
G01*
G75*
%ADD10C,0.2500*%
%ADD11C,0.6000*%
%ADD12C,0.1000*%
%ADD13C,0.2540*%
%ADD14C,0.2540*%
%ADD15C,0.1524*%
%ADD16C,0.2000*%
D10*
X452260Y172121D02*
G03*
X452260Y172121I-1250J0D01*
G01*
X20411Y308137D02*
G03*
X20411Y308137I-1250J0D01*
G01*
X601Y57389D02*
G03*
X601Y57389I-1250J0D01*
G01*
X-7820Y285534D02*
G03*
X-7820Y285534I-1250J0D01*
G01*
X-108511Y173357D02*
G03*
X-108511Y173357I-1250J0D01*
G01*
D11*
X477698Y185202D02*
G03*
X477698Y185202I-3000J0D01*
G01*
X-77063Y177600D02*
G03*
X-77063Y177600I-3000J0D01*
G01*
D12*
X-25474Y79133D02*
G03*
X-25474Y79133I-500J0D01*
G01*
X12113Y228920D02*
G03*
X12113Y228920I-500J0D01*
G01*
X94020Y35687D02*
G03*
X94020Y35687I-500J0D01*
G01*
X82020Y14987D02*
G03*
X82020Y14987I-500J0D01*
G01*
X114520Y-13013D02*
G03*
X114520Y-13013I-500J0D01*
G01*
X138320Y4287D02*
G03*
X138320Y4287I-500J0D01*
G01*
X96538Y244438D02*
G03*
X96538Y244438I-500J0D01*
G01*
X373983Y-52378D02*
G03*
X373983Y-52378I-500J0D01*
G01*
X-39217Y92722D02*
G03*
X-39217Y92722I-500J0D01*
G01*
X430522Y36617D02*
G03*
X430522Y36617I-500J0D01*
G01*
X22883Y39022D02*
G03*
X22883Y39022I-500J0D01*
G01*
X359613Y-28680D02*
G03*
X359613Y-28680I-500J0D01*
G01*
X416620Y16587D02*
G03*
X416620Y16587I-500J0D01*
G01*
D13*
X454000Y61700D02*
D03*
D14*
X152834Y6395D02*
X170795Y-11565D01*
X440203Y257843D01*
X422242Y275803D02*
X440203Y257843D01*
X152834Y6395D02*
X422242Y275803D01*
X45538Y148660D02*
X99419Y202542D01*
X61702Y240259D02*
X99419Y202542D01*
X7820Y186377D02*
X61702Y240259D01*
X7820Y186377D02*
X45538Y148660D01*
X307144Y90603D02*
X378206Y33058D01*
X272777Y48163D02*
X307144Y90603D01*
X343839Y-9382D02*
X378206Y33058D01*
X272777Y48163D02*
X343839Y-9382D01*
X476627Y84327D02*
X489355Y71600D01*
X449757Y57457D02*
X462485Y44729D01*
X472385Y60286D02*
X475213Y57457D01*
X483698Y65943D01*
X485112Y64529D01*
X456829Y75842D02*
X462485Y70185D01*
X455414Y77257D02*
X456829Y75842D01*
X454000D02*
X455414Y77257D01*
X461071Y65943D02*
X466728Y71600D01*
X469557Y68771D02*
X472385Y65943D01*
X463899Y63114D02*
X469557Y68771D01*
X463899Y63114D02*
X466728Y60286D01*
X472385Y65943D01*
X469557Y57457D02*
X475213Y63114D01*
X117974Y26635D02*
X135934Y8674D01*
X405342Y278082D01*
X387382Y296043D02*
X405342Y278082D01*
X117974Y26635D02*
X387382Y296043D01*
X163669Y298034D02*
X161129Y300573D01*
X156051D01*
X153512Y298034D01*
Y295495D01*
X156051Y292955D01*
X161129D01*
X163669Y290416D01*
Y287877D01*
X161129Y285338D01*
X156051D01*
X153512Y287877D01*
X178904Y300573D02*
X168747D01*
Y292955D01*
X173825Y295495D01*
X176365D01*
X178904Y292955D01*
Y287877D01*
X176365Y285338D01*
X171286D01*
X168747Y287877D01*
X18635Y262474D02*
X16095Y265013D01*
X11017D01*
X8478Y262474D01*
Y259935D01*
X11017Y257395D01*
X16095D01*
X18635Y254856D01*
Y252317D01*
X16095Y249778D01*
X11017D01*
X8478Y252317D01*
X23713Y249778D02*
X28791D01*
X26252D01*
Y265013D01*
X23713Y262474D01*
X366110Y27274D02*
Y42509D01*
X373727D01*
X376267Y39970D01*
Y34892D01*
X373727Y32352D01*
X366110D01*
X371188D02*
X376267Y27274D01*
X381345D02*
Y37431D01*
X386423Y42509D01*
X391502Y37431D01*
Y27274D01*
Y34892D01*
X381345D01*
X396580Y27274D02*
X401659D01*
X399119D01*
Y42509D01*
X396580Y39970D01*
X439516Y255869D02*
Y243173D01*
X442055Y240634D01*
X447133D01*
X449673Y243173D01*
Y255869D01*
X454751Y240634D02*
X459829D01*
X457290D01*
Y255869D01*
X454751Y253330D01*
X-14639Y125314D02*
X-17178Y127853D01*
X-22257D01*
X-24796Y125314D01*
Y115157D01*
X-22257Y112618D01*
X-17178D01*
X-14639Y115157D01*
X-9561Y112618D02*
X-4483D01*
X-7022D01*
Y127853D01*
X-9561Y125314D01*
X277207Y112614D02*
X274667Y115153D01*
X269589D01*
X267050Y112614D01*
Y110075D01*
X269589Y107535D01*
X274667D01*
X277207Y104996D01*
Y102457D01*
X274667Y99918D01*
X269589D01*
X267050Y102457D01*
X292442Y99918D02*
X282285D01*
X292442Y110075D01*
Y112614D01*
X289903Y115153D01*
X284824D01*
X282285Y112614D01*
X11272Y371190D02*
Y386425D01*
X18889D01*
X21429Y383886D01*
Y378807D01*
X18889Y376268D01*
X11272D01*
X16350D02*
X21429Y371190D01*
X36664Y386425D02*
X26507D01*
Y371190D01*
X36664D01*
X26507Y378807D02*
X31585D01*
X51899Y383886D02*
X49360Y386425D01*
X44281D01*
X41742Y383886D01*
Y373729D01*
X44281Y371190D01*
X49360D01*
X51899Y373729D01*
Y378807D01*
X46821D01*
X56977Y371190D02*
X62056D01*
X59516D01*
Y386425D01*
X56977Y383886D01*
X6951Y113376D02*
X4412Y115915D01*
X-667D01*
X-3206Y113376D01*
Y103219D01*
X-667Y100680D01*
X4412D01*
X6951Y103219D01*
X22186Y100680D02*
X12029D01*
X22186Y110837D01*
Y113376D01*
X19647Y115915D01*
X14568D01*
X12029Y113376D01*
X22953Y275174D02*
X20413Y277713D01*
X15335D01*
X12796Y275174D01*
Y265017D01*
X15335Y262478D01*
X20413D01*
X22953Y265017D01*
X35649Y262478D02*
Y277713D01*
X28031Y270096D01*
X38188D01*
X91533Y57496D02*
X88994Y60035D01*
X83915D01*
X81376Y57496D01*
Y47339D01*
X83915Y44800D01*
X88994D01*
X91533Y47339D01*
X96611Y57496D02*
X99150Y60035D01*
X104229D01*
X106768Y57496D01*
Y54957D01*
X104229Y52417D01*
X101689D01*
X104229D01*
X106768Y49878D01*
Y47339D01*
X104229Y44800D01*
X99150D01*
X96611Y47339D01*
X-17687Y310988D02*
X-20227Y313527D01*
X-25305D01*
X-27844Y310988D01*
Y300831D01*
X-25305Y298292D01*
X-20227D01*
X-17687Y300831D01*
X-2452Y313527D02*
X-12609D01*
Y305910D01*
X-7531Y308449D01*
X-4991D01*
X-2452Y305910D01*
Y300831D01*
X-4991Y298292D01*
X-10070D01*
X-12609Y300831D01*
X79341Y36668D02*
X76802Y39207D01*
X71723D01*
X69184Y36668D01*
Y26511D01*
X71723Y23972D01*
X76802D01*
X79341Y26511D01*
X94576Y39207D02*
X89497Y36668D01*
X84419Y31590D01*
Y26511D01*
X86958Y23972D01*
X92037D01*
X94576Y26511D01*
Y29050D01*
X92037Y31590D01*
X84419D01*
X111853Y8728D02*
X109313Y11267D01*
X104235D01*
X101696Y8728D01*
Y-1429D01*
X104235Y-3968D01*
X109313D01*
X111853Y-1429D01*
X116931Y11267D02*
X127088D01*
Y8728D01*
X116931Y-1429D01*
Y-3968D01*
X-132238Y281523D02*
Y268827D01*
X-129699Y266288D01*
X-124621D01*
X-122081Y268827D01*
Y281523D01*
X-106846Y266288D02*
X-117003D01*
X-106846Y276445D01*
Y278984D01*
X-109385Y281523D01*
X-114464D01*
X-117003Y278984D01*
X135729Y26000D02*
X133189Y28539D01*
X128111D01*
X125572Y26000D01*
Y15843D01*
X128111Y13304D01*
X133189D01*
X135729Y15843D01*
X140807Y26000D02*
X143346Y28539D01*
X148425D01*
X150964Y26000D01*
Y23461D01*
X148425Y20921D01*
X150964Y18382D01*
Y15843D01*
X148425Y13304D01*
X143346D01*
X140807Y15843D01*
Y18382D01*
X143346Y20921D01*
X140807Y23461D01*
Y26000D01*
X143346Y20921D02*
X148425D01*
X84929Y320894D02*
X82389Y323433D01*
X77311D01*
X74772Y320894D01*
Y318355D01*
X77311Y315816D01*
X82389D01*
X84929Y313276D01*
Y310737D01*
X82389Y308198D01*
X77311D01*
X74772Y310737D01*
X90007Y320894D02*
X92546Y323433D01*
X97625D01*
X100164Y320894D01*
Y318355D01*
X97625Y315816D01*
X95085D01*
X97625D01*
X100164Y313276D01*
Y310737D01*
X97625Y308198D01*
X92546D01*
X90007Y310737D01*
X374492Y-2195D02*
Y-17430D01*
X382109D01*
X384649Y-14891D01*
Y-4734D01*
X382109Y-2195D01*
X374492D01*
X399884Y-17430D02*
X389727D01*
X399884Y-7273D01*
Y-4734D01*
X397345Y-2195D01*
X392266D01*
X389727Y-4734D01*
X-38512Y142839D02*
Y127604D01*
X-30894D01*
X-28355Y130143D01*
Y140300D01*
X-30894Y142839D01*
X-38512D01*
X-23277Y127604D02*
X-18199D01*
X-20738D01*
Y142839D01*
X-23277Y140300D01*
X44546Y55214D02*
Y70449D01*
X52164D01*
X54703Y67910D01*
Y62832D01*
X52164Y60292D01*
X44546D01*
X49624D02*
X54703Y55214D01*
X59781D02*
Y65371D01*
X64859Y70449D01*
X69938Y65371D01*
Y55214D01*
Y62832D01*
X59781D01*
X85173Y55214D02*
X75016D01*
X85173Y65371D01*
Y67910D01*
X82634Y70449D01*
X77555D01*
X75016Y67910D01*
X436468Y123027D02*
X446625Y107792D01*
Y123027D02*
X436468Y107792D01*
X451703D02*
X456781D01*
X454242D01*
Y123027D01*
X451703Y120488D01*
X419450Y60797D02*
Y45562D01*
X427067D01*
X429607Y48101D01*
Y58258D01*
X427067Y60797D01*
X419450D01*
X434685Y58258D02*
X437224Y60797D01*
X442303D01*
X444842Y58258D01*
Y55719D01*
X442303Y53179D01*
X439763D01*
X442303D01*
X444842Y50640D01*
Y48101D01*
X442303Y45562D01*
X437224D01*
X434685Y48101D01*
X23464Y89245D02*
Y74010D01*
X31082D01*
X33621Y76549D01*
Y86706D01*
X31082Y89245D01*
X23464D01*
X46317Y74010D02*
Y89245D01*
X38699Y81628D01*
X48856D01*
X370425Y17618D02*
X367886Y20157D01*
X362807D01*
X360268Y17618D01*
Y7461D01*
X362807Y4922D01*
X367886D01*
X370425Y7461D01*
X375503Y4922D02*
X380581D01*
X378042D01*
Y20157D01*
X375503Y17618D01*
X388199D02*
X390738Y20157D01*
X395816D01*
X398356Y17618D01*
Y7461D01*
X395816Y4922D01*
X390738D01*
X388199Y7461D01*
Y17618D01*
X414113Y38192D02*
X411573Y40731D01*
X406495D01*
X403956Y38192D01*
Y28035D01*
X406495Y25496D01*
X411573D01*
X414113Y28035D01*
X419191D02*
X421730Y25496D01*
X426809D01*
X429348Y28035D01*
Y38192D01*
X426809Y40731D01*
X421730D01*
X419191Y38192D01*
Y35653D01*
X421730Y33114D01*
X429348D01*
X128871Y318100D02*
X126332Y320639D01*
X121253D01*
X118714Y318100D01*
Y315561D01*
X121253Y313022D01*
X126332D01*
X128871Y310482D01*
Y307943D01*
X126332Y305404D01*
X121253D01*
X118714Y307943D01*
X141567Y305404D02*
Y320639D01*
X133949Y313022D01*
X144106D01*
D15*
X367901Y-7262D02*
X374972Y-14333D01*
X390531Y15368D02*
X397602Y8297D01*
X374972Y-14333D02*
X397063Y7759D01*
X367901Y-7262D02*
X389992Y14829D01*
X46176Y20743D02*
X53247Y13672D01*
X68807Y43373D02*
X75877Y36303D01*
X53247Y13672D02*
X75338Y35764D01*
X46176Y20743D02*
X68268Y42835D01*
D16*
X460556Y185202D02*
X534803Y110956D01*
X484598Y209244D02*
X558844Y134997D01*
X460556Y185202D02*
X484598Y209244D01*
X534803Y110956D02*
X558844Y134997D01*
X27823Y316800D02*
X75200Y269423D01*
X55400Y344377D02*
X102776Y297001D01*
X27823Y316800D02*
X55400Y344377D01*
X75200Y269423D02*
X102776Y297001D01*
X40307Y68491D02*
X41544Y67254D01*
X18754Y46938D02*
X19991Y45701D01*
X41544Y67254D01*
X3827Y61865D02*
X4725Y60967D01*
X25380Y83418D02*
X26278Y82520D01*
X3827Y61865D02*
X25380Y83418D01*
X794Y243342D02*
X2032Y244579D01*
X-20758Y264895D02*
X-19521Y266132D01*
X-20758Y264895D02*
X794Y243342D01*
X-5492Y280161D02*
X-4594Y281059D01*
X16061Y258608D02*
X16959Y259506D01*
X-4594Y281059D02*
X16959Y259506D01*
X-53900Y137295D02*
X-13595Y177600D01*
X-94205D02*
X-53900Y217905D01*
X-13595Y177600D01*
X-94205D02*
X-53900Y137295D01*
X97094Y241079D02*
X129621Y273606D01*
X105579Y232594D02*
X138106Y265121D01*
X395752Y-49373D02*
X397873Y-47252D01*
X388327Y-41949D02*
X390448Y-39827D01*
X-17448Y95727D02*
X-15327Y97848D01*
X-24873Y103152D02*
X-22752Y105273D01*
X440452Y21773D02*
X442573Y19652D01*
X433027Y14348D02*
X435148Y12227D01*
X44652Y42027D02*
X46773Y44148D01*
X37227Y49452D02*
X39348Y51573D01*
M02*
